<?xml version="1.0" encoding="utf-8"?>
<!-- Generator: Adobe Illustrator 23.0.3, SVG Export Plug-In . SVG Version: 6.00 Build 0)  -->
<svg version="1.1" id="Calque_1" xmlns="http://www.w3.org/2000/svg" xmlns:xlink="http://www.w3.org/1999/xlink" x="0px" y="0px"
	 viewBox="0 0 500 500" style="enable-background:new 0 0 500 500;" xml:space="preserve">
<style type="text/css">
	.st0{fill:#060F17;}
</style>
<g>
	<path class="st0" d="M434.7,150.19h-76.6c9.1-9.83,14.68-22.97,14.68-37.39c0-30.37-24.71-55.08-55.08-55.08h-22.17
		c-19.36,0-36.41,10.05-46.23,25.2c-9.82-15.15-26.87-25.2-46.23-25.2h-22.17c-30.37,0-55.08,24.71-55.08,55.08
		c0,14.42,5.58,27.56,14.68,37.39H70.97c-14.63,0-26.54,11.9-26.54,26.54v56.14c0,13.96,10.84,25.4,24.53,26.44v214.17
		c0,14.63,11.9,26.54,26.54,26.54h103.67h101.67h104.61c14.63,0,26.54-11.9,26.54-26.54V259.4h2.71c14.63,0,26.54-11.9,26.54-26.54
		v-56.14C461.24,162.09,449.33,150.19,434.7,150.19z M258.14,112.8c0-20.61,16.77-37.39,37.39-37.39h22.17
		c20.62,0,37.39,16.77,37.39,37.39c0,20.62-16.77,37.39-37.39,37.39h-16.87h-42.7V112.8z M258.14,167.88h25v73.83h-66.28v-73.83
		h23.59H258.14z M180.89,75.41h22.17c20.61,0,37.39,16.77,37.39,37.39v37.39h-41.28h-18.28c-20.62,0-37.39-16.77-37.39-37.39
		C143.5,92.18,160.27,75.41,180.89,75.41z M62.12,232.86v-56.14c0-4.88,3.97-8.85,8.85-8.85h109.92h18.28v73.83H70.97
		C66.09,241.71,62.12,237.74,62.12,232.86z M95.5,482.31c-4.88,0-8.85-3.97-8.85-8.85V259.4h112.52v222.91H95.5z M216.86,482.31
		V259.4h66.28v222.91H216.86z M414.3,473.46c0,4.88-3.97,8.85-8.85,8.85H300.84V259.4H414.3V473.46z M443.55,232.86
		c0,4.88-3.97,8.85-8.85,8.85h-2.71H300.84v-73.83h16.87h117c4.88,0,8.85,3.97,8.85,8.85V232.86z"/>
	<polygon class="st0" points="53.4,84.26 37.47,84.26 37.47,68.33 19.78,68.33 19.78,84.26 3.86,84.26 3.86,101.95 19.78,101.95 
		19.78,117.87 37.47,117.87 37.47,101.95 53.4,101.95 	"/>
	<polygon class="st0" points="496.97,18.56 481.05,18.56 481.05,2.64 463.36,2.64 463.36,18.56 447.44,18.56 447.44,36.25 
		463.36,36.25 463.36,52.18 481.05,52.18 481.05,36.25 496.97,36.25 	"/>
	<rect x="241.63" y="0.4" class="st0" width="17.69" height="17.52"/>
	<rect x="397.67" y="34.66" class="st0" width="17.69" height="17.51"/>
	<rect x="85.83" y="0.4" class="st0" width="17.69" height="17.52"/>
	<rect x="3.27" y="2.64" class="st0" width="17.69" height="17.52"/>
	<rect x="479.75" y="100.35" class="st0" width="17.69" height="17.52"/>
	<path class="st0" d="M161.19,43.42H143.5C143.5,29.4,132.87,18,119.8,18V0.31C142.62,0.31,161.19,19.65,161.19,43.42z"/>
	<path class="st0" d="M439.36,143.37h-17.69c0-23.77,18.57-43.11,41.4-43.11v17.69C450,117.96,439.36,129.36,439.36,143.37z"/>
</g>
</svg>
