<?xml version="1.0" encoding="utf-8"?>
<!-- Generator: Adobe Illustrator 23.0.3, SVG Export Plug-In . SVG Version: 6.00 Build 0)  -->
<svg version="1.1" id="Calque_1" xmlns="http://www.w3.org/2000/svg" xmlns:xlink="http://www.w3.org/1999/xlink" x="0px" y="0px"
	 viewBox="0 0 500 500" style="enable-background:new 0 0 500 500;" xml:space="preserve">
<style type="text/css">
	.st0{fill:none;}
	.st1{fill:#060F17;}
</style>
<g>
	<g>
		<path class="st0" d="M171.6,340.3c27.91,0,51.1,20.6,55.17,47.39h95.35V159.33c0-4.73-3.85-8.59-8.59-8.59H82.76
			c-4.73,0-8.59,3.85-8.59,8.59v219.78c0,4.73,3.85,8.59,8.59,8.59h33.67C120.5,360.9,143.69,340.3,171.6,340.3z"/>
		<path class="st0" d="M175.12,404.86h-7.04c1.09,0.44,2.28,0.69,3.52,0.69S174.03,405.3,175.12,404.86z"/>
		<path class="st0" d="M171.6,357.47c-18.41,0-33.85,12.95-37.7,30.22h12.47c3.53-10.56,13.5-18.2,25.23-18.2
			c11.73,0,21.7,7.64,25.23,18.2h12.47C205.44,370.42,190.01,357.47,171.6,357.47z"/>
		<path class="st0" d="M171.6,422.72c-11.6,0-21.47-7.48-25.1-17.86h-12.52c3.98,17.1,19.33,29.88,37.62,29.88
			s33.64-12.78,37.62-29.88H196.7C193.07,415.24,183.2,422.72,171.6,422.72z"/>
		<path class="st0" d="M171.6,386.66c-1.54,0-2.98,0.38-4.27,1.03h8.53C174.58,387.04,173.13,386.66,171.6,386.66z"/>
		<path class="st1" d="M196.83,387.69c-3.53-10.56-13.5-18.2-25.23-18.2c-11.73,0-21.7,7.64-25.23,18.2
			c-0.89,2.65-1.39,5.47-1.39,8.41c0,3.07,0.55,6.01,1.51,8.76c3.63,10.38,13.5,17.86,25.1,17.86c11.6,0,21.47-7.48,25.1-17.86
			c0.96-2.75,1.51-5.69,1.51-8.76C198.21,393.16,197.71,390.34,196.83,387.69z M171.6,405.55c-1.24,0-2.43-0.25-3.52-0.69
			c-3.47-1.4-5.92-4.79-5.92-8.76c0-3.67,2.11-6.85,5.18-8.41c1.28-0.65,2.73-1.03,4.27-1.03c1.54,0,2.98,0.38,4.27,1.03
			c3.07,1.56,5.18,4.74,5.18,8.41c0,3.96-2.46,7.36-5.92,8.76C174.03,405.3,172.84,405.55,171.6,405.55z"/>
	</g>
	<g>
		<path class="st0" d="M405.6,340.3c27.91,0,51.1,20.6,55.17,47.39h13.48c4.73,0,8.59-3.85,8.59-8.59v-72.63
			c0-1.75-0.33-3.45-0.98-5.08l-15.78-39.32c-11.08-27.58-37.44-45.41-67.16-45.41h-51.03c-4.73,0-8.59,3.85-8.59,8.59v162.43h11.15
			C354.5,360.9,377.69,340.3,405.6,340.3z"/>
		<path class="st0" d="M405.6,422.72c-11.6,0-21.47-7.48-25.1-17.86h-12.52c3.98,17.1,19.33,29.88,37.62,29.88
			c18.29,0,33.64-12.78,37.62-29.88H430.7C427.07,415.24,417.2,422.72,405.6,422.72z"/>
		<path class="st0" d="M405.6,357.47c-18.41,0-33.85,12.95-37.7,30.22h12.47c3.53-10.56,13.5-18.2,25.23-18.2
			c11.73,0,21.7,7.64,25.23,18.2h12.47C439.45,370.42,424.01,357.47,405.6,357.47z"/>
		<path class="st0" d="M409.12,404.86h-7.04c1.09,0.44,2.28,0.69,3.52,0.69S408.03,405.3,409.12,404.86z"/>
		<path class="st0" d="M405.6,386.66c-1.54,0-2.98,0.38-4.27,1.03h8.53C408.58,387.04,407.14,386.66,405.6,386.66z"/>
		<path class="st1" d="M430.83,387.69c-3.53-10.56-13.5-18.2-25.23-18.2c-11.73,0-21.7,7.64-25.23,18.2
			c-0.89,2.65-1.39,5.47-1.39,8.41c0,3.07,0.55,6.01,1.51,8.76c3.63,10.38,13.5,17.86,25.1,17.86c11.6,0,21.47-7.48,25.1-17.86
			c0.96-2.75,1.51-5.69,1.51-8.76C432.21,393.16,431.71,390.34,430.83,387.69z M405.6,405.55c-1.24,0-2.43-0.25-3.52-0.69
			c-3.47-1.4-5.92-4.79-5.92-8.76c0-3.67,2.11-6.85,5.18-8.41c1.28-0.65,2.73-1.03,4.27-1.03c1.54,0,2.98,0.38,4.27,1.03
			c3.07,1.56,5.18,4.74,5.18,8.41c0,3.96-2.46,7.36-5.92,8.76C408.03,405.3,406.84,405.55,405.6,405.55z"/>
	</g>
	<g>
		<polyline class="st1" points="20.67,253.76 20.67,270.93 57,270.93 74.18,270.93 151.85,270.93 151.85,253.76 		"/>
		<path class="st1" d="M497.78,295L482,255.69c-13.7-34.13-46.32-56.18-83.09-56.18h-51.03c-3.01,0-5.9,0.55-8.59,1.5v-41.68
			c0-14.2-11.55-25.76-25.76-25.76H82.76c-14.2,0-25.76,11.55-25.76,25.76v53.23H43.61v17.17H57h17.17h100.62v-17.17H74.18v-53.23
			c0-4.73,3.85-8.59,8.59-8.59h230.77c4.73,0,8.59,3.85,8.59,8.59v65.93v162.43h-95.35c-4.07-26.79-27.26-47.39-55.17-47.39
			s-51.1,20.6-55.17,47.39H82.76c-4.73,0-8.59-3.85-8.59-8.59v-68.34h57.01V293.6H74.18H57H0v17.17h57v68.34
			c0,14.2,11.55,25.76,25.76,25.76h33.73c4.21,26.62,27.32,47.05,55.11,47.05s50.9-20.42,55.11-47.05h95.41h17.17h11.2
			c4.21,26.62,27.32,47.05,55.11,47.05c27.79,0,50.9-20.42,55.11-47.05h13.53c14.2,0,25.76-11.55,25.76-25.76v-72.63
			C500,302.53,499.25,298.67,497.78,295z M209.22,404.86c-3.98,17.1-19.33,29.88-37.62,29.88s-33.64-12.78-37.62-29.88
			c-0.66-2.82-1.01-5.74-1.01-8.76c0-2.89,0.33-5.7,0.93-8.41c3.85-17.27,19.29-30.22,37.7-30.22s33.85,12.95,37.7,30.22
			c0.6,2.71,0.93,5.52,0.93,8.41C210.23,399.12,209.87,402.05,209.22,404.86z M414.19,218.29c23.23,4.96,42.75,21.05,51.88,43.79
			l12.65,31.51h-64.53V218.29z M443.22,404.86c-3.98,17.1-19.33,29.88-37.62,29.88c-18.29,0-33.64-12.78-37.62-29.88
			c-0.66-2.82-1.01-5.74-1.01-8.76c0-2.89,0.33-5.7,0.93-8.41c3.85-17.27,19.29-30.22,37.7-30.22s33.85,12.95,37.7,30.22
			c0.6,2.71,0.93,5.52,0.93,8.41C444.23,399.12,443.88,402.05,443.22,404.86z M482.83,379.11c0,4.73-3.85,8.59-8.59,8.59h-13.48
			c-4.07-26.79-27.26-47.39-55.17-47.39c-27.91,0-51.1,20.6-55.17,47.39h-11.15V225.26c0-4.73,3.85-8.59,8.59-8.59h49.15v85.51
			c0,4.74,3.84,8.59,8.59,8.59h77.23V379.11z"/>
	</g>
</g>
</svg>
