<svg xmlns="http://www.w3.org/2000/svg" viewBox="0 0 323.41 402.44"><defs><style>.cls-1,.cls-10,.cls-4,.cls-7{fill:none;}.cls-1{stroke:#6d5a4a;stroke-linejoin:round;stroke-width:20px;}.cls-1,.cls-10,.cls-7{stroke-linecap:round;}.cls-2{fill:#f5e8d5;}.cls-3{fill:#6d5a4a;}.cls-5{fill:#e0d3b1;}.cls-6{fill:#5d4c3c;}.cls-7{stroke:#fff;stroke-width:2px;}.cls-10,.cls-7{stroke-miterlimit:10;}.cls-8{fill:#424244;}.cls-9{fill:#fff;}.cls-10{stroke:#010e19;stroke-width:10px;}.cls-11{fill:#010e19;}.cls-12{fill:#7ccdbe;}</style></defs><title>chattotopanim2</title><g id="tail"><path class="cls-1" d="M580,510c-2.72.32,51-3.65,50-52-.85-39.2,29.85-40.46,38-39" transform="translate(-354.59 -199.56)"/></g><g id="leftear"><path class="cls-2" d="M434,241.76s-35.75-29-68.9-40.78c0,0-.88,23-2.7,32.89s-3.44,39.17,3.26,50.6c2.22,3.79,10.57,14.65,17.5,14.32,13.92-.67,29.46-16.64,29.46-16.64l26.86-33.92Z" transform="translate(-354.59 -199.56)"/><path class="cls-3" d="M403,248a59.5,59.5,0,0,0-23.08-16.14l-1.24,11.93c-.41,4-1.35,21.92,1.32,25.21A97.4,97.4,0,0,1,403,248Z" transform="translate(-354.59 -199.56)"/></g><g id="rightear"><path class="cls-2" d="M536.3,243.12s34.53-30.46,67.17-43.56c0,0,1.82,22.95,4,32.76s5,39-1.18,50.68c-2.34,4.38-12.46,15.88-20.53,15.47-13.48-.68-26.49-15.87-26.49-15.87l-29-33.7Z" transform="translate(-354.59 -199.56)"/><path class="cls-3" d="M566.18,248a59.5,59.5,0,0,1,23.08-16.14l1.24,11.93c.41,4,1.35,21.92-1.32,25.21A97.4,97.4,0,0,0,566.18,248Z" transform="translate(-354.59 -199.56)"/></g><g id="catbody"><path class="cls-4" d="M468.38,230.83l.28,0-.13-.29Z" transform="translate(-354.59 -199.56)"/><path class="cls-4" d="M355.33,339.71c0-.2,0-.4-.05-.61l-.64.3Z" transform="translate(-354.59 -199.56)"/><path class="cls-2" d="M614.67,339.75c0-.27.05-.54.07-.81-.1.15-.18.3-.28.46A3.91,3.91,0,0,1,614.67,339.75Z" transform="translate(-354.59 -199.56)"/><path class="cls-5" d="M614.41,339.4h.05v0Z" transform="translate(-354.59 -199.56)"/><path class="cls-2" d="M615,332.5a82.34,82.34,0,0,0-3.78-24.61c-10.22-32.69-40.32-59.2-79.62-71.1a158.25,158.25,0,0,0-29.92-5.95l-.29,0C496,230.28,490.55,230,485,230s-11,.27-16.34.8l-.28,0a158.3,158.3,0,0,0-29.94,5.95c-39.47,11.94-69.67,38.62-79.78,71.49A82.49,82.49,0,0,0,355,332.5c0,2.22.1,4.42.28,6.6,0,.21,0,.41.05.61a84,84,0,0,0,7.88,28.71C381.67,407.31,429.23,426,485,426c55.6,0,103-18.52,121.61-57.22a84.12,84.12,0,0,0,8.06-29,3.91,3.91,0,0,0-.21-.35h-.05l0,0v0c.1-.16.18-.31.28-.46C614.9,336.81,615,334.66,615,332.5Z" transform="translate(-354.59 -199.56)"/><path class="cls-5" d="M354.64,339.4l0,0v0h.05Z" transform="translate(-354.59 -199.56)"/><path class="cls-6" d="M471.73,250.66l.23,0-.11-.23Z" transform="translate(-354.59 -199.56)"/><path class="cls-6" d="M588.17,337.35c0-.21,0-.43.05-.64-.08.12-.14.24-.22.36Z" transform="translate(-354.59 -199.56)"/><path class="cls-6" d="M588,337.07h0Z" transform="translate(-354.59 -199.56)"/><path class="cls-3" d="M588.43,331.58a65.56,65.56,0,0,0-3-19.59c-8.14-26-32.09-47.11-63.37-56.59a125.78,125.78,0,0,0-23.82-4.73l-.23,0q-6.4-.63-13-.64t-13,.64l-.23,0a126,126,0,0,0-23.83,4.74c-31.41,9.5-55.45,30.73-63.49,56.9a65.12,65.12,0,0,0-2.92,19.28c0,1.77.08,3.52.22,5.26,0,.16,0,.32,0,.48A66.56,66.56,0,0,0,388,360.17C402.72,391.12,440.57,406,485,406s82-14.74,96.79-45.55a66.88,66.88,0,0,0,6.42-23.1l-.17-.28h0c.08-.12.14-.24.22-.36C588.35,335,588.43,333.3,588.43,331.58Z" transform="translate(-354.59 -199.56)"/><line class="cls-7" x1="77.41" y1="149.44" x2="34.41" y2="137.44"/><line class="cls-7" x1="77.41" y1="164.44" x2="34.41" y2="176.44"/><line class="cls-7" x1="78.23" y1="156.44" x2="33.59" y2="156.44"/><line class="cls-7" x1="187.41" y1="149.44" x2="230.41" y2="137.44"/><line class="cls-7" x1="187.41" y1="164.44" x2="230.41" y2="176.44"/><line class="cls-7" x1="186.59" y1="156.44" x2="231.23" y2="156.44"/><path class="cls-8" d="M486,339.5h10.92a1.24,1.24,0,0,1,1.07,1.86l-5.46,9.46-5.46,9.45a1.23,1.23,0,0,1-2.14,0l-5.46-9.45L474,341.36a1.24,1.24,0,0,1,1.07-1.86Z" transform="translate(-354.59 -199.56)"/><path class="cls-8" d="M475.27,373.61c-2.45,0-5-1.43-7.64-4.27a.5.5,0,1,1,.74-.68c2.89,3.14,5.64,4.41,8.17,3.8,5.87-1.44,8.95-12.48,9-12.59a.5.5,0,0,1,.61-.35.49.49,0,0,1,.35.61c-.13.48-3.26,11.72-9.71,13.3A6.28,6.28,0,0,1,475.27,373.61Z" transform="translate(-354.59 -199.56)"/><path class="cls-8" d="M496.73,373.61c2.45,0,5-1.43,7.64-4.27a.5.5,0,0,0-.74-.68c-2.89,3.14-5.64,4.41-8.17,3.8-5.87-1.44-8.95-12.48-9-12.59a.5.5,0,0,0-1,.26c.13.48,3.26,11.72,9.71,13.3A6.28,6.28,0,0,0,496.73,373.61Z" transform="translate(-354.59 -199.56)"/><rect class="cls-9" x="10.41" y="206.44" width="243" height="196" rx="19.9"/><path class="cls-10" d="M550.42,529.11" transform="translate(-354.59 -199.56)"/><path class="cls-10" d="M487.42,469.11" transform="translate(-354.59 -199.56)"/><path class="cls-11" d="M426.81,523.14l56.76-56.77a3.44,3.44,0,0,1,4.86,0l56.76,56.77a3.43,3.43,0,0,1-2.42,5.86H429.23A3.43,3.43,0,0,1,426.81,523.14Z" transform="translate(-354.59 -199.56)"/><ellipse class="cls-3" cx="378.15" cy="405.7" rx="16" ry="20.5" transform="translate(-406.72 -143.8) rotate(-7.89)"/><ellipse class="cls-3" cx="394" cy="403.5" rx="16" ry="20.5" transform="translate(-406.27 -141.64) rotate(-7.89)"/><ellipse class="cls-3" cx="409.85" cy="401.3" rx="16" ry="20.5" transform="translate(-405.81 -139.49) rotate(-7.89)"/><ellipse class="cls-3" cx="594.85" cy="405.7" rx="20.5" ry="16" transform="translate(-243.28 739.64) rotate(-82.11)"/><ellipse class="cls-3" cx="579" cy="403.5" rx="20.5" ry="16" transform="translate(-254.78 722.04) rotate(-82.11)"/><ellipse class="cls-3" cx="563.15" cy="401.3" rx="20.5" ry="16" transform="translate(-266.27 704.45) rotate(-82.11)"/></g><g id="lefteye"><circle class="cls-12" cx="81.91" cy="120.94" r="21.5"/><circle class="cls-8" cx="81.91" cy="120.94" r="12.5"/><circle class="cls-9" cx="85.41" cy="117.44" r="4"/></g><g id="righteye"><circle class="cls-12" cx="179.91" cy="120.94" r="21.5"/><circle class="cls-8" cx="179.91" cy="120.94" r="12.5"/><circle class="cls-9" cx="176.41" cy="117.44" r="4"/></g></svg>