<?xml version="1.0" encoding="utf-8"?>
<!-- Generator: Adobe Illustrator 23.0.3, SVG Export Plug-In . SVG Version: 6.00 Build 0)  -->
<svg version="1.1" id="Calque_1" xmlns="http://www.w3.org/2000/svg" xmlns:xlink="http://www.w3.org/1999/xlink" x="0px" y="0px"
	 viewBox="0 0 500 500" style="enable-background:new 0 0 500 500;" xml:space="preserve">
<style type="text/css">
	.st0{fill:#060F17;}
</style>
<g>
	<path class="st0" d="M165.36,366.7v34.81H9.14V366.7h61.79V196.99c-2.61,3.48-6.68,7.18-12.19,11.1
		C53.23,212,47,215.7,40.04,219.18c-6.96,3.48-13.93,6.31-20.89,8.49c-6.96,2.18-13.35,3.26-19.15,3.26v-36.56
		c6.38,0,13.42-1.81,21.11-5.44c7.68-3.62,15.16-7.9,22.41-12.84c7.25-4.93,13.42-9.57,18.49-13.92c5.07-4.35,8.05-7.4,8.92-9.14
		h39.16V366.7H165.36z"/>
	<path class="st0" d="M190.17,288.37l9.57-22.63h196.69l-9.57,22.63H190.17z M411.66,217.44l-9.57,22.63H200.61l9.57-22.63H411.66z
		 M232.38,244.42c0-18.85,3.26-37.35,9.79-55.48c6.53-18.13,16.1-34.66,28.72-49.61c12.62-14.94,28.07-26.83,46.34-35.68
		c18.28-8.85,39.01-13.27,62.23-13.27c27.56,0,51.2,6.31,70.93,18.93c19.72,12.62,34.38,28.8,43.95,48.52l-30.89,20.02
		c-6.09-13.05-13.86-23.42-23.28-31.12c-9.43-7.68-19.58-13.12-30.46-16.32c-10.88-3.19-21.54-4.79-31.99-4.79
		c-17.12,0-32.27,3.48-45.47,10.44c-13.21,6.96-24.3,16.25-33.29,27.85c-9,11.61-15.74,24.59-20.24,38.95
		c-4.5,14.36-6.74,28.8-6.74,43.3c0,15.96,2.68,31.33,8.05,46.13c5.37,14.8,12.84,27.85,22.41,39.16
		c9.57,11.32,20.88,20.31,33.94,26.98c13.05,6.67,27.27,10.01,42.65,10.01c10.73,0,21.76-1.88,33.07-5.65
		c11.31-3.77,21.9-9.64,31.77-17.62c9.86-7.98,17.69-18.34,23.5-31.12L500,331.89c-6.39,15.38-16.25,28.44-29.59,39.16
		c-13.35,10.74-28.22,18.86-44.6,24.37c-16.39,5.51-32.57,8.27-48.52,8.27c-21.18,0-40.62-4.57-58.31-13.71
		c-17.7-9.14-33-21.32-45.91-36.56c-12.91-15.23-22.92-32.35-30.03-51.35C235.93,283.08,232.38,263.86,232.38,244.42z"/>
</g>
</svg>
