<?xml version="1.0" encoding="utf-8"?>
<!-- Generator: Adobe Illustrator 23.0.3, SVG Export Plug-In . SVG Version: 6.00 Build 0)  -->
<svg version="1.1" id="Calque_1" xmlns="http://www.w3.org/2000/svg" xmlns:xlink="http://www.w3.org/1999/xlink" x="0px" y="0px"
	 viewBox="0 0 500 500" style="enable-background:new 0 0 500 500;" xml:space="preserve">
<style type="text/css">
	.st0{fill:#070F18;}
</style>
<g>
	<g>
		<g>
			<path class="st0" d="M256.15,498.24c37.22-15.8,71.76-38.14,102.02-64.92c30.51-27.03,57.42-59.92,73.53-97.57
				c8.3-19.46,13.79-39.6,15.62-60.71c0.98-11.29,0.61-22.7,0.61-34.05c0-12.02,0-24.1,0-36.12c0-31.79,0-63.58,0-95.37
				c0-10.8,0.43-21.72,0-32.52c0-0.12,0-0.24,0-0.37c0-5.67-3.84-10.01-8.97-11.78c-21.11-7.32-42.29-14.64-63.4-21.97
				c-33.32-11.53-66.63-23.13-99.89-34.66c-7.38-2.56-14.71-5.49-22.21-7.69c-3.72-1.1-6.28-0.24-9.52,0.85
				c-3.78,1.34-7.63,2.62-11.41,3.97c-31.91,11.04-63.76,22.09-95.68,33.13C111.9,47.13,87,55.73,62.05,64.4
				c-0.43,0.12-0.79,0.31-1.22,0.43c-5.13,1.77-8.97,6.16-8.97,11.78c0,8.6,0,17.21,0,25.81c0,29.11,0,58.21,0,87.32
				c0,23.8-0.06,47.59,0,71.39c0.06,20.2,3.6,40.52,10.31,59.55c13.73,39.23,38.69,73.71,68.4,102.45
				c29.35,28.37,63.7,52.11,100.56,69.56c4.15,1.95,8.42,3.84,12.63,5.67c3.17,1.34,5.92,2.2,9.4,1.22
				c2.81-0.79,5.92-2.99,7.32-5.61c2.75-5.25,1.89-14.03-4.39-16.72c-17.57-7.44-34.48-16.35-50.65-26.48
				c-8.6-5.37-16.96-11.11-25.08-17.15c-0.98-0.73-1.95-1.46-2.93-2.2c-0.92-0.73-2.81-1.77-0.79-0.61
				c-2.32-1.34-4.39-3.48-6.47-5.13c-3.91-3.17-7.75-6.47-11.53-9.82c-7.57-6.71-14.83-13.73-21.78-21.11
				c-3.42-3.66-6.77-7.38-10.07-11.23c-1.59-1.83-3.11-3.72-4.64-5.61c-0.73-0.92-1.53-1.89-2.26-2.81c-0.31-0.43-0.92-0.98-1.1-1.4
				c0.55,1.28,0.92,1.22,0-0.06c-6.04-7.99-11.72-16.29-16.78-24.96c-2.38-4.09-4.7-8.24-6.83-12.45c-1.04-2.07-2.07-4.21-3.11-6.35
				c-0.49-1.04-0.98-2.14-1.46-3.17c-0.37-0.79-2.38-4.88-0.85-1.89c-2.07-4.09-3.48-8.73-4.88-13.06c-1.59-4.7-2.93-9.4-4.09-14.16
				c-1.16-4.64-2.07-9.34-2.87-14.03c-0.18-0.98-0.24-2.01-0.43-2.99c0.79,3.23,0-0.12-0.12-1.1c-0.31-2.62-0.55-5.19-0.73-7.81
				c-0.79-11.65-0.37-23.37-0.37-35.09c0-11.53,0-23,0-34.54c0-31.12,0-62.24,0-93.36c0-10.5,0.49-21.17,0-31.67
				c0-0.12,0-0.24,0-0.37c-2.99,3.91-5.98,7.87-8.97,11.78c21.05-7.32,41.98-14.58,62.97-21.91
				c33.38-11.59,66.75-23.13,100.13-34.72c7.63-2.62,15.25-5.25,22.82-7.93c-2.14,0-4.33,0-6.47,0
				c20.93,7.26,41.92,14.52,62.85,21.78c33.38,11.59,66.69,23.13,100.07,34.72c7.63,2.62,15.19,5.25,22.82,7.93
				c-2.99-3.91-5.98-7.87-8.97-11.78c0,8.42,0,16.78,0,25.2c0,28.37,0,56.75,0,85.18c0,23.06,0,46.19,0,69.26
				c0,5.25,0,10.56-0.37,15.8c-0.18,2.32-0.37,4.64-0.61,6.96c-0.06,0.43-0.55,4.21-0.24,2.26c0.24-1.71,0-0.24,0,0.12
				c-0.12,0.85-0.24,1.71-0.37,2.56c-1.53,9.46-3.84,18.73-6.9,27.76c-0.73,2.2-1.53,4.39-2.32,6.59c-0.43,1.1-0.85,2.2-1.28,3.23
				c-0.24,0.55-0.43,1.1-0.67,1.65c-0.12,0.37-1.1,2.68-0.37,0.98c0.67-1.65-0.79,1.77-0.98,2.14c-0.49,1.1-0.98,2.14-1.46,3.17
				c-1.04,2.26-2.14,4.52-3.3,6.71c-4.45,8.73-9.46,17.15-14.89,25.26c-2.87,4.21-5.86,8.36-8.91,12.45
				c-0.37,0.49-1.34,1.89,0.24-0.31c-0.37,0.49-0.73,0.98-1.1,1.4c-0.67,0.85-1.34,1.65-1.95,2.5c-1.65,2.01-3.23,3.97-4.94,5.98
				c-6.65,7.81-13.67,15.25-20.99,22.33c-7.26,7.02-14.83,13.73-22.7,20.14c-1.89,1.53-3.84,3.05-5.74,4.58
				c-1.1,0.85,0.61-0.43,0.67-0.49c-0.43,0.37-0.98,0.73-1.46,1.1c-1.22,0.92-2.44,1.83-3.66,2.75c-4.03,2.99-8.12,5.92-12.26,8.73
				c-16.05,10.92-32.89,20.69-50.46,28.98c-4.15,1.95-8.42,3.84-12.63,5.67c-5.92,2.5-7.63,11.65-4.39,16.72
				C243.39,500.01,249.86,500.92,256.15,498.24z"/>
		</g>
	</g>
	<g>
		<g>
			<path class="st0" d="M146.56,235.31c19.65,19.65,39.3,39.3,59,59c2.81,2.81,5.61,5.61,8.42,8.42c4.64,4.64,12.57,4.7,17.27,0
				c13.85-13.85,27.76-27.76,41.61-41.61c21.91-21.91,43.87-43.87,65.84-65.78c5.06-5.06,10.13-10.13,15.19-15.19
				c4.52-4.52,4.88-12.81,0-17.27c-4.88-4.45-12.45-4.82-17.27,0c-13.85,13.85-27.76,27.76-41.61,41.61
				c-21.97,21.97-43.87,43.87-65.84,65.84c-5.06,5.06-10.13,10.13-15.19,15.19c5.74,0,11.53,0,17.27,0c-19.65-19.65-39.3-39.3-59-59
				c-2.81-2.81-5.61-5.61-8.42-8.42c-4.52-4.52-12.81-4.88-17.27,0C142.1,222.92,141.74,230.49,146.56,235.31L146.56,235.31z"/>
		</g>
	</g>
</g>
</svg>
